REM DIRINDEX 1\2\6,1\2\7,1\2\8,1\2\9,1\3\10,1\3\11,1\4\12,1\4\13,1\4\14,1\5\15,1\5\16,1\5\17
REM DIRNAME folder01,folder02,folder03,folder04,folder05,folder06,folder07,folder08,folder09,folder10,folder11,folder12,folder13,folder14,folder15,folder16,folder17
TITLE ""
FILE "1900_3_092 sec16_1519_1537.mp3" MP3
  TRACK 01 AUDIO
    TITLE "0:"
    INDEX 01 00:00:00
  TRACK 02 AUDIO
    TITLE "17:cjc020_9021"
    INDEX 01 00:00:13
  TRACK 03 AUDIO
    TITLE "0:"
    INDEX 01 00:01:30
  TRACK 04 AUDIO
    TITLE "16:cjc020_9022"
    INDEX 01 00:01:32
  TRACK 05 AUDIO
    TITLE "0:"
    INDEX 01 00:02:32
  TRACK 06 AUDIO
    TITLE "17:cjc020_9023"
    INDEX 01 00:03:17
  TRACK 07 AUDIO
    TITLE "0:"
    INDEX 01 00:04:25
  TRACK 08 AUDIO
    TITLE "16:cjc020_9024"
    INDEX 01 00:04:31
  TRACK 09 AUDIO
    TITLE "0:"
    INDEX 01 00:05:32
  TRACK 10 AUDIO
    TITLE "17:cjc020_9025"
    INDEX 01 00:06:14
  TRACK 11 AUDIO
    TITLE "0:"
    INDEX 01 00:07:37
  TRACK 12 AUDIO
    TITLE "16:cjc020_9026"
    INDEX 01 00:07:43
  TRACK 13 AUDIO
    TITLE "0:"
    INDEX 01 00:08:62
  TRACK 14 AUDIO
    TITLE "17:cjc020_9027"
    INDEX 01 00:09:45
  TRACK 15 AUDIO
    TITLE "0:"
    INDEX 01 00:10:55
  TRACK 16 AUDIO
    TITLE "16:cjc020_9028"
    INDEX 01 00:10:57
  TRACK 17 AUDIO
    TITLE "0:"
    INDEX 01 00:12:05
  TRACK 18 AUDIO
    TITLE "17:cjc020_9029"
    INDEX 01 00:12:67
  TRACK 19 AUDIO
    TITLE "0:"
    INDEX 01 00:14:35
  TRACK 20 AUDIO
    TITLE "16:cjc020_9030"
    INDEX 01 00:14:41
  TRACK 21 AUDIO
    TITLE "0:"
    INDEX 01 00:15:56
  TRACK 22 AUDIO
    TITLE "17:cjc020_9031"
    INDEX 01 00:16:42
  TRACK 23 AUDIO
    TITLE "0:"
    INDEX 01 00:17:65
  TRACK 24 AUDIO
    TITLE "16:cjc020_9032"
    INDEX 01 00:17:70
  TRACK 25 AUDIO
    TITLE "0:"
    INDEX 01 00:19:20
  TRACK 26 AUDIO
    TITLE "17:cjc020_9033"
    INDEX 01 00:20:02
  TRACK 27 AUDIO
    TITLE "0:"
    INDEX 01 00:20:71
  TRACK 28 AUDIO
    TITLE "16:cjc020_9034"
    INDEX 01 00:21:06
  TRACK 29 AUDIO
    TITLE "0:"
    INDEX 01 00:22:11
  TRACK 30 AUDIO
    TITLE "17:cjc020_9035"
    INDEX 01 00:22:68
  TRACK 31 AUDIO
    TITLE "0:"
    INDEX 01 00:25:17
  TRACK 32 AUDIO
    TITLE "16:cjc020_9036"
    INDEX 01 00:25:23
  TRACK 33 AUDIO
    TITLE "0:"
    INDEX 01 00:26:22
  TRACK 34 AUDIO
    TITLE "17:cjc020_9037"
    INDEX 01 00:27:06
  TRACK 35 AUDIO
    TITLE "0:"
    INDEX 01 00:28:04
  TRACK 36 AUDIO
    TITLE "16:cjc020_9038"
    INDEX 01 00:28:08
  TRACK 37 AUDIO
    TITLE "0:"
    INDEX 01 00:29:01
  TRACK 38 AUDIO
    TITLE "17:cjc020_9039"
    INDEX 01 00:29:60
  TRACK 39 AUDIO
    TITLE "0:"
    INDEX 01 00:31:35
  TRACK 40 AUDIO
    TITLE "16:cjc020_9040"
    INDEX 01 00:31:43
  TRACK 41 AUDIO
    TITLE "0:"
    INDEX 01 00:32:35
  TRACK 42 AUDIO
    TITLE "17:cjc020_9041"
    INDEX 01 00:33:17
  TRACK 43 AUDIO
    TITLE "0:"
    INDEX 01 00:34:30
  TRACK 44 AUDIO
    TITLE "16:cjc020_9042"
    INDEX 01 00:34:32
  TRACK 45 AUDIO
    TITLE "0:"
    INDEX 01 00:35:41
  TRACK 46 AUDIO
    TITLE "17:cjc020_9043"
    INDEX 01 00:36:25
  TRACK 47 AUDIO
    TITLE "0:"
    INDEX 01 00:37:50
  TRACK 48 AUDIO
    TITLE "16:cjc020_9044"
    INDEX 01 00:37:56
  TRACK 49 AUDIO
    TITLE "0:"
    INDEX 01 00:38:73
  TRACK 50 AUDIO
    TITLE "17:cjc020_9045"
    INDEX 01 00:39:56
  TRACK 51 AUDIO
    TITLE "0:"
    INDEX 01 00:42:49
  TRACK 52 AUDIO
    TITLE "16:cjc020_9046"
    INDEX 01 00:43:33
  TRACK 53 AUDIO
    TITLE "0:"
    INDEX 01 00:44:50
  TRACK 54 AUDIO
    TITLE "17:cjc020_9047"
    INDEX 01 00:45:33
  TRACK 55 AUDIO
    TITLE "0:"
    INDEX 01 00:46:25
  TRACK 56 AUDIO
    TITLE "16:cjc020_9048"
    INDEX 01 00:46:33
  TRACK 57 AUDIO
    TITLE "0:"
    INDEX 01 00:47:56
  TRACK 58 AUDIO
    TITLE "17:cjc020_9049"
    INDEX 01 00:48:44
  TRACK 59 AUDIO
    TITLE "0:"
    INDEX 01 00:49:61
  TRACK 60 AUDIO
    TITLE "16:cjc020_9050"
    INDEX 01 00:49:70
  TRACK 61 AUDIO
    TITLE "0:"
    INDEX 01 00:50:74
  TRACK 62 AUDIO
    TITLE "17:cjc020_9051"
    INDEX 01 00:51:63
  TRACK 63 AUDIO
    TITLE "0:"
    INDEX 01 00:53:17
  TRACK 64 AUDIO
    TITLE "16:cjc020_9052"
    INDEX 01 00:53:21
  TRACK 65 AUDIO
    TITLE "0:"
    INDEX 01 00:54:34
  TRACK 66 AUDIO
    TITLE "17:cjc020_9053"
    INDEX 01 00:55:18
  TRACK 67 AUDIO
    TITLE "0:"
    INDEX 01 00:56:37
  TRACK 68 AUDIO
    TITLE "16:cjc020_9054"
    INDEX 01 00:56:45
  TRACK 69 AUDIO
    TITLE "0:"
    INDEX 01 00:57:64
  TRACK 70 AUDIO
    TITLE "17:cjc020_9055"
    INDEX 01 00:58:52
  TRACK 71 AUDIO
    TITLE "0:"
    INDEX 01 01:00:19
  TRACK 72 AUDIO
    TITLE "16:cjc020_9056"
    INDEX 01 01:00:23
  TRACK 73 AUDIO
    TITLE "0:"
    INDEX 01 01:01:31
  TRACK 74 AUDIO
    TITLE "17:cjc020_9057"
    INDEX 01 01:02:20
  TRACK 75 AUDIO
    TITLE "0:"
    INDEX 01 01:03:24
  TRACK 76 AUDIO
    TITLE "16:cjc020_9058"
    INDEX 01 01:03:26
  TRACK 77 AUDIO
    TITLE "0:"
    INDEX 01 01:04:56
